C:\GBW_MyPrograms\KinderuniversiteitApp\Resultaten\Ellis\MrImpossible\MrImpossible_v1.mot
version=1
nRows=6
nColumns=29
inDegrees=yes
endheader
                time	         pelvis_tilt	           pelvis_tx	           pelvis_ty	       hip_flexion_l	       hip_flexion_r	        knee_angle_l	        knee_angle_r	       ankle_angle_l	       ankle_angle_r	    lumbar_extension	hamstrings_r/activation	bifemsh_r/activation	glut_max_r/activation	iliopsoas_r/activation	rect_fem_r/activation	  vasti_r/activation	gastroc_r/activation	 soleus_r/activation	tib_ant_r/activation	hamstrings_l/activation	bifemsh_l/activation	glut_max_l/activation	iliopsoas_l/activation	rect_fem_l/activation	  vasti_l/activation	gastroc_l/activation	 soleus_l/activation	tib_ant_l/activation	
          0.51903121	          2.97966970	          0.64878901	          0.89613246	         24.70304151	        -21.14902702	        -16.84138847	        -11.43835080	         11.31733899	          7.86287807	         -9.29217325	          0.05000338	          0.10654719	          0.05000164	          0.41497719	          0.05000226	          0.05000061	          0.09789430	          0.16432181	          0.05000024	          0.15892909	          0.05001106	          0.05468127	          0.05000160	          0.05865507	          0.06044599	          0.05896959	          0.05044548	          0.22996800	
          0.52941183	          2.92081530	          0.66542786	          0.89562980	         23.93807993	        -20.56117037	        -16.92621406	        -14.24259772	         11.13738617	          6.73368120	         -8.80203116	          0.05000398	          0.09083247	          0.06120723	          0.38338920	          0.05000217	          0.05000065	          0.08345566	          0.14008563	          0.05000015	          0.14211085	          0.08155464	          0.06923727	          0.05000223	          0.05000486	          0.08609121	          0.06585160	          0.05865387	          0.22958282	
          0.53979245	          2.86859925	          0.68220083	          0.89512783	         23.09317149	        -19.78523652	        -17.32268358	        -17.35212414	         11.06616747	          5.33265955	         -8.29960538	          0.05000339	          0.07743562	          0.08070415	          0.34452681	          0.05000264	          0.05000221	          0.07114661	          0.11942407	          0.05000144	          0.12269345	          0.08072177	          0.09052707	          0.05000108	          0.05000075	          0.12359524	          0.05614227	          0.05000348	          0.24915644	
          0.55017308	          2.81908379	          0.69872246	          0.89486205	         22.25579104	        -18.80287092	        -17.69913280	        -20.71771048	         10.91495126	          3.65239751	         -7.82934310	          0.06374206	          0.06601493	          0.06880125	          0.30042888	          0.05000068	          0.05000053	          0.06065306	          0.10180993	          0.16770621	          0.10459785	          0.06881676	          0.13461335	          0.05000028	          0.05000038	          0.17394015	          0.05000224	          0.05000221	          0.26000075	
          0.56055370	          2.77050738	          0.71460674	          0.89492702	         21.52716958	        -17.63914889	        -18.18056953	        -24.18286559	         10.74708129	          2.43840782	         -7.43808819	          0.07026219	          0.05628039	          0.05865383	          0.27837667	          0.05000134	          0.05000023	          0.05511325	          0.08679377	          0.16511024	          0.08917056	          0.05866738	          0.13146637	          0.05000075	          0.05002931	          0.22007460	          0.05000193	          0.05000175	          0.27301879	
          0.57093433	          2.72111444	          0.72974777	          0.89541810	         20.86216461	        -16.38549098	        -18.68059205	        -27.34470672	         10.60672176	          2.43985974	         -7.13630415	          0.09830782	          0.08831899	          0.05000299	          0.23731971	          0.05000086	          0.05000014	          0.05000097	          0.07399242	          0.21078687	          0.07736562	          0.05001865	          0.11207851	          0.05000068	          0.05000120	          0.25790295	          0.05000145	          0.05000169	          0.28149941	
